<svg width="21" height="27" viewBox="0 0 21 27" fill="none" xmlns="http://www.w3.org/2000/svg">
<path d="M20.9562 11.7382C20.9062 11.5949 20.8165 11.4714 20.6992 11.3841C20.5818 11.2969 20.4424 11.2501 20.2996 11.25H11.8472L16.7226 1.0935C16.7778 0.97914 16.8046 0.851462 16.8004 0.722785C16.7961 0.594107 16.761 0.468773 16.6984 0.358873C16.6358 0.248973 16.5478 0.158215 16.4429 0.0953557C16.338 0.0324962 16.2198 -0.000344157 16.0996 2.71965e-06C15.9318 7.73403e-05 15.7696 0.064756 15.6425 0.182253L10.4997 4.941L0.242608 14.4323C0.134513 14.5322 0.0575377 14.6652 0.0220109 14.8134C-0.0135159 14.9616 -0.00589518 15.1179 0.0438509 15.2613C0.093597 15.4047 0.183089 15.5284 0.300319 15.6157C0.41755 15.7031 0.556911 15.7499 0.699706 15.75H9.15216L4.27669 25.9065C4.22147 26.0209 4.1947 26.1485 4.19894 26.2772C4.20319 26.4059 4.23831 26.5312 4.30092 26.6411C4.36354 26.751 4.45153 26.8418 4.5564 26.9046C4.66128 26.9675 4.77951 27.0003 4.89969 27C5.06752 26.9999 5.22973 26.9352 5.35678 26.8177L10.4997 22.059L20.7567 12.5677C20.865 12.4678 20.9422 12.3348 20.9779 12.1865C21.0135 12.0382 21.006 11.8818 20.9562 11.7382Z" fill="white"/>
</svg>
